<svg width="207" height="82" viewBox="0 0 207 82" fill="none" xmlns="http://www.w3.org/2000/svg">
<path d="M7.792 81.332C5.616 81.332 3.84533 80.756 2.48 79.604C1.11467 78.452 0.432 76.8947 0.432 74.932C0.432 72.9267 1.24267 70.708 2.864 68.276C4.18667 66.356 6.128 64.308 8.688 62.132C11.248 59.9987 14.3627 58.0147 18.032 56.18C21.7013 54.3027 25.8187 52.8733 30.384 51.892C30.4267 51.4653 30.448 51.0387 30.448 50.612C30.448 50.1853 30.448 49.7587 30.448 49.332C30.448 45.6627 30.128 41.9293 29.488 38.132C28.848 34.3347 28.0373 30.6227 27.056 26.996C26.2453 31.1347 25.1573 35.0387 23.792 38.708C22.4267 42.3773 20.9547 45.62 19.376 48.436C17.7973 51.2093 16.1973 53.3853 14.576 54.964C12.9973 56.5427 11.5253 57.332 10.16 57.332C9.008 57.332 8.00533 56.692 7.152 55.412C6.34133 54.132 5.76533 52.0627 5.424 49.204C5.38133 48.9907 5.36 48.7347 5.36 48.436C5.36 48.0947 5.36 47.7533 5.36 47.412C5.36 46.004 5.44533 44.2333 5.616 42.1C5.78667 39.924 6 37.5347 6.256 34.932C6.512 32.3293 6.74667 29.6413 6.96 26.868C7.216 24.0947 7.42933 21.4067 7.6 18.804C7.77067 16.1587 7.856 13.7267 7.856 11.508C7.856 8.86266 7.68533 6.708 7.344 5.044C7.00267 3.33733 6.384 2.484 5.488 2.484C4.89067 2.484 4.336 2.804 3.824 3.444C3.312 4.04133 2.864 4.724 2.48 5.492C2.05333 6.21733 1.73333 6.81466 1.52 7.284C1.264 7.75333 1.11467 7.83867 1.072 7.54C1.02933 7.36933 1.008 7.22 1.008 7.092C0.965333 6.92133 0.944 6.75067 0.944 6.58C0.944 5.76933 1.136 4.916 1.52 4.02C1.904 3.124 2.416 2.356 3.056 1.716C3.696 1.076 4.42133 0.755997 5.232 0.755997C5.53067 0.755997 5.872 0.819997 6.256 0.947998C8.00533 1.63066 9.2 3.14533 9.84 5.492C10.5227 7.83866 10.864 10.6333 10.864 13.876C10.864 16.3507 10.736 18.9747 10.48 21.748C10.224 24.5213 9.92533 27.2947 9.584 30.068C9.24267 32.8413 8.944 35.4653 8.688 37.94C8.432 40.4147 8.304 42.612 8.304 44.532C8.304 45.0013 8.304 45.4707 8.304 45.94C8.34667 46.3667 8.38933 46.772 8.432 47.156C8.77333 49.844 9.24267 51.7427 9.84 52.852C10.4373 53.9613 11.12 54.516 11.888 54.516C12.7413 54.516 13.616 54.0467 14.512 53.108C15.4507 52.1693 16.368 50.996 17.264 49.588C18.16 48.18 18.9707 46.772 19.696 45.364C20.592 43.7 21.4453 41.6307 22.256 39.156C23.0667 36.6387 23.8133 34.0573 24.496 31.412C25.2213 28.724 25.7973 26.292 26.224 24.116L25.648 22.26C25.5627 21.62 25.712 21.1507 26.096 20.852C26.48 20.5107 26.8853 20.34 27.312 20.34C28.1653 20.34 28.72 20.6813 28.976 21.364C29.616 22.9 30.1707 24.9693 30.64 27.572C31.152 30.1747 31.536 33.012 31.792 36.084C32.048 39.1133 32.176 42.1 32.176 45.044C32.176 46.1533 32.1547 47.2627 32.112 48.372C32.0693 49.4387 32.0053 50.4627 31.92 51.444C33.2853 51.2307 34.672 51.0387 36.08 50.868C37.5307 50.6547 39.024 50.548 40.56 50.548H40.88C41.392 50.548 41.648 50.6333 41.648 50.804C41.648 50.932 41.4987 51.0813 41.2 51.252C40.9013 51.38 40.4747 51.4653 39.92 51.508C38.5973 51.5933 37.232 51.7427 35.824 51.956C34.4587 52.1267 33.0933 52.3827 31.728 52.724C30.96 57.0333 29.872 60.788 28.464 63.988C27.056 67.188 25.4773 69.876 23.728 72.052C21.9787 74.228 20.208 75.9773 18.416 77.3C16.496 78.708 14.6187 79.732 12.784 80.372C10.9493 81.012 9.28533 81.332 7.792 81.332ZM7.088 80.372C7.984 80.372 9.008 80.2013 10.16 79.86C11.312 79.5187 12.5493 78.9427 13.872 78.132C16.8587 76.3827 19.504 74.2067 21.808 71.604C24.112 69.044 25.9893 66.1853 27.44 63.028C28.8907 59.9133 29.8293 56.6493 30.256 53.236C27.2693 54.004 24.1973 55.156 21.04 56.692C17.9253 58.228 15.0027 60.02 12.272 62.068C9.54133 64.116 7.25867 66.356 5.424 68.788C4.44267 70.068 3.71733 71.3053 3.248 72.5C2.77867 73.7373 2.544 74.868 2.544 75.892C2.544 77.2147 2.94933 78.2813 3.76 79.092C4.528 79.9453 5.63733 80.372 7.088 80.372ZM37.581 55.988C37.0263 55.988 36.557 55.7107 36.173 55.156C35.8317 54.6013 35.6823 53.7053 35.725 52.468C35.725 51.8707 35.8957 50.8893 36.237 49.524C36.5783 48.116 36.941 46.5587 37.325 44.852C37.7517 43.1453 38.1143 41.4813 38.413 39.86C38.7543 38.2387 38.925 36.916 38.925 35.892C38.925 35.4227 38.8823 35.0387 38.797 34.74C38.7117 34.3987 38.4983 34.228 38.157 34.228C37.901 34.228 37.6663 34.356 37.453 34.612C37.2397 34.8253 37.0263 35.0387 36.813 35.252C36.5143 35.636 36.3437 35.828 36.301 35.828C36.2583 35.828 36.237 35.764 36.237 35.636C36.237 35.124 36.429 34.5693 36.813 33.972C37.2397 33.332 37.7303 33.012 38.285 33.012C38.9677 33.012 39.4583 33.3533 39.757 34.036C40.0557 34.676 40.205 35.5933 40.205 36.788C40.205 38.1107 40.0557 39.604 39.757 41.268C39.4583 42.932 39.1383 44.4893 38.797 45.94C38.6263 46.6227 38.477 47.4547 38.349 48.436C38.221 49.4173 38.157 50.3773 38.157 51.316C38.157 52.1267 38.221 52.8093 38.349 53.364C38.5197 53.876 38.8183 54.132 39.245 54.132C39.5863 54.132 39.9917 53.94 40.461 53.556C40.973 53.1293 41.5703 52.4253 42.253 51.444C43.2343 50.0787 44.109 48.5213 44.877 46.772C45.6877 44.98 46.4343 43.3587 47.117 41.908C47.373 41.3107 47.693 41.012 48.077 41.012C49.0583 41.012 49.549 41.5453 49.549 42.612C49.549 43.4227 49.421 44.4467 49.165 45.684C48.9517 46.8787 48.845 48.0307 48.845 49.14C48.845 51.1453 49.229 52.148 49.997 52.148C50.381 52.148 50.765 51.9133 51.149 51.444C51.5757 50.932 51.8103 50.6333 51.853 50.548C52.109 50.2493 52.3437 50.1 52.557 50.1C52.813 50.1 52.941 50.2493 52.941 50.548C52.941 51.1027 52.621 51.7 51.981 52.34C51.341 52.98 50.6583 53.3 49.933 53.3C49.2503 53.3 48.6957 53.0653 48.269 52.596C47.885 52.084 47.5223 51.4227 47.181 50.612C46.797 49.6307 46.605 48.7773 46.605 48.052C46.605 47.3267 46.5623 46.6227 46.477 45.94C46.1783 46.964 45.6663 48.052 44.941 49.204C44.2583 50.356 43.469 51.4653 42.573 52.532C41.7197 53.556 40.845 54.388 39.949 55.028C39.053 55.668 38.2637 55.988 37.581 55.988ZM69.1805 67.7C68.2418 67.7 67.5165 67.2947 67.0045 66.484C66.5352 65.6733 66.3005 64.7347 66.3005 63.668C66.3005 62.388 66.5352 60.916 67.0045 59.252C67.4738 57.6307 68.0712 55.9667 68.7965 54.26C69.5218 52.5107 70.2685 50.8253 71.0365 49.204C71.8472 47.5827 72.5512 46.132 73.1485 44.852C73.7885 43.572 74.2152 42.5907 74.4285 41.908C74.6845 41.14 74.8125 40.564 74.8125 40.18C74.8125 39.7533 74.6632 39.54 74.3645 39.54C74.0232 39.54 73.5112 39.8173 72.8285 40.372C72.1885 40.884 71.5698 41.46 70.9725 42.1C70.3752 42.74 69.9485 43.2093 69.6925 43.508C68.2845 45.044 67.0472 46.7507 65.9805 48.628C64.9138 50.5053 64.2312 52.1053 63.9325 53.428C63.8898 53.6413 63.8258 54.0253 63.7405 54.58C63.6552 55.092 63.4632 55.348 63.1645 55.348C62.8658 55.348 62.6312 55.1987 62.4605 54.9C62.3325 54.6013 62.2472 54.2813 62.2045 53.94C62.1618 53.7267 62.1192 53.3213 62.0765 52.724C62.0765 52.084 62.0765 51.6147 62.0765 51.316C62.0765 49.4813 62.2685 47.6467 62.6525 45.812C63.0365 43.9347 63.4632 42.1427 63.9325 40.436C64.4445 38.6867 64.8925 37.0867 65.2765 35.636C65.6605 34.1853 65.8525 32.948 65.8525 31.924C65.8525 31.2413 65.7245 30.6867 65.4685 30.26C65.2552 29.7907 64.9778 29.556 64.6365 29.556C64.1245 29.556 63.5272 29.9827 62.8445 30.836C62.2045 31.6893 61.5432 32.8413 60.8605 34.292C60.1778 35.7427 59.5378 37.3427 58.9405 39.092C58.3858 40.8413 57.9165 42.612 57.5325 44.404C57.1912 46.196 57.0205 47.8813 57.0205 49.46C57.0205 50.356 57.0845 51.2733 57.2125 52.212C57.3832 53.1507 57.4685 53.9827 57.4685 54.708C57.4685 55.2627 57.3832 55.668 57.2125 55.924C57.0845 56.18 56.7432 56.308 56.1885 56.308C55.1645 56.308 54.5245 55.3053 54.2685 53.3C53.9698 51.5507 53.6498 49.5667 53.3085 47.348C53.0098 45.1293 52.6258 43.1667 52.1565 41.46C52.0285 40.9907 51.8792 40.5 51.7085 39.988C51.5378 39.476 51.2178 39.0067 50.7485 38.58C50.7058 38.4947 50.5992 38.4093 50.4285 38.324C50.2578 38.2387 50.1725 38.1533 50.1725 38.068C50.1725 37.8973 50.4072 37.812 50.8765 37.812C51.5165 37.812 52.1138 38.1747 52.6685 38.9C53.2232 39.5827 53.7138 40.436 54.1405 41.46C54.5672 42.484 54.9298 43.508 55.2285 44.532C55.5698 45.5133 55.8258 46.3027 55.9965 46.9C56.3805 44.5533 56.8072 42.42 57.2765 40.5C57.7458 38.5373 58.3432 36.6387 59.0685 34.804C59.5805 33.5667 60.1778 32.372 60.8605 31.22C61.5432 30.068 62.3112 29.1293 63.1645 28.404C64.0178 27.636 64.9138 27.252 65.8525 27.252C66.4498 27.252 67.1538 27.572 67.9645 28.212C68.8178 28.852 69.2445 29.876 69.2445 31.284C69.2445 31.924 69.0738 32.692 68.7325 33.588C68.4338 34.4413 68.0925 35.4013 67.7085 36.468C67.1538 37.9613 66.5565 39.6467 65.9165 41.524C65.2765 43.3587 64.7218 45.044 64.2525 46.58C63.7832 48.116 63.5058 49.1827 63.4205 49.78C63.3352 50.4627 63.2712 51.0387 63.2285 51.508C63.2285 51.9347 63.2285 52.34 63.2285 52.724C63.4845 51.6147 64.0392 50.3347 64.8925 48.884C65.7885 47.3907 66.5992 46.132 67.3245 45.108C68.1352 43.956 68.9885 42.868 69.8845 41.844C70.8232 40.7773 71.7832 39.924 72.7645 39.284C73.7885 38.6013 74.7912 38.26 75.7725 38.26C76.2418 38.26 76.6472 38.388 76.9885 38.644C77.3298 38.9 77.5005 39.3907 77.5005 40.116C77.5005 41.0973 77.1805 42.228 76.5405 43.508C75.9432 44.7453 75.1965 46.0253 74.3005 47.348C73.4472 48.628 72.6578 49.8867 71.9325 51.124C70.9938 52.7453 70.1192 54.4947 69.3085 56.372C68.5405 58.2067 68.1565 60.1053 68.1565 62.068C68.1565 63.6893 68.3485 64.8627 68.7325 65.588C69.1592 66.3133 69.6072 66.676 70.0765 66.676C70.3752 66.676 70.6738 66.5693 70.9725 66.356C71.3138 66.1427 71.5912 65.9507 71.8045 65.78C71.8898 65.6947 72.0178 65.5667 72.1885 65.396C72.3592 65.268 72.5085 65.204 72.6365 65.204C72.8072 65.204 72.8285 65.3747 72.7005 65.716C72.6578 65.8867 72.5298 66.0573 72.3165 66.228C72.1032 66.4413 71.9538 66.5907 71.8685 66.676C71.0578 67.3587 70.1618 67.7 69.1805 67.7ZM111.044 64.308C108.484 64.308 106.201 62.9853 104.196 60.34C101.465 61.1507 98.9693 61.556 96.708 61.556C94.2333 61.556 92.292 61.0867 90.884 60.148C89.476 59.252 88.772 58.1213 88.772 56.756C88.772 55.6893 89.22 54.5373 90.116 53.3C91.012 52.0627 92.3987 50.8467 94.276 49.652C95.044 49.1827 95.876 48.7133 96.772 48.244C97.7107 47.7747 98.7133 47.348 99.78 46.964C99.652 45.5987 99.588 44.148 99.588 42.612C99.588 39.1133 99.972 35.2733 100.74 31.092C101.508 26.868 102.788 22.324 104.58 17.46C101.423 19.0387 98.5213 20.916 95.876 23.092C93.2307 25.2253 91.1827 27.4227 89.732 29.684C89.2627 30.452 88.6867 30.836 88.004 30.836C87.5347 30.836 87.3 30.6013 87.3 30.132C87.3 29.7907 87.492 29.2787 87.876 28.596C88.2173 27.9133 88.836 27.06 89.732 26.036C91.4387 24.0733 93.6573 22.1747 96.388 20.34C99.1187 18.5053 102.105 16.9267 105.348 15.604C106.073 13.5987 106.905 11.636 107.844 9.716C108.1 9.16133 108.484 8.884 108.996 8.884C109.337 8.884 109.615 9.012 109.828 9.268C110.084 9.48133 110.212 9.75866 110.212 10.1C110.212 10.2707 110.169 10.484 110.084 10.74C109.828 11.3373 109.572 11.9347 109.316 12.532C109.103 13.1293 108.889 13.7267 108.676 14.324C109.273 14.1107 109.892 13.9187 110.532 13.748C111.172 13.5773 111.791 13.4067 112.388 13.236C115.716 12.468 118.681 12.084 121.284 12.084C124.697 12.084 127.513 12.66 129.732 13.812C131.951 14.964 133.593 16.5427 134.66 18.548C135.727 20.5107 136.26 22.7507 136.26 25.268C136.26 27.8707 135.705 30.6227 134.596 33.524C133.529 36.4253 131.951 39.348 129.86 42.292C127.769 45.1933 125.167 47.9453 122.052 50.548C118.98 53.1507 115.46 55.4547 111.492 57.46C109.401 58.484 107.417 59.316 105.54 59.956C106.564 61.0227 107.609 61.7693 108.676 62.196C109.743 62.6227 110.617 62.836 111.3 62.836C111.897 62.836 112.324 62.708 112.58 62.452C112.964 62.0253 113.369 61.812 113.796 61.812C114.095 61.812 114.351 61.8973 114.564 62.068C114.777 62.2387 114.884 62.4307 114.884 62.644C114.884 62.9853 114.607 63.3053 114.052 63.604C113.54 63.86 113.028 64.0307 112.516 64.116C112.004 64.244 111.513 64.308 111.044 64.308ZM104.9 59.188C105.881 58.8467 106.905 58.42 107.972 57.908C109.081 57.4387 110.212 56.8627 111.364 56.18C116.185 53.4067 120.175 50.292 123.332 46.836C126.532 43.3373 128.921 39.796 130.5 36.212C132.121 32.628 132.932 29.3 132.932 26.228C132.932 22.5587 131.823 19.5507 129.604 17.204C127.385 14.8147 124.057 13.62 119.62 13.62C117.487 13.62 115.076 13.94 112.388 14.58C111.663 14.7507 110.937 14.964 110.212 15.22C109.487 15.4333 108.761 15.6893 108.036 15.988C105.433 22.8147 103.641 28.724 102.66 33.716C101.679 38.6653 101.209 42.8893 101.252 46.388C103.343 45.6627 105.583 45.0867 107.972 44.66C110.404 44.2333 112.921 44.02 115.524 44.02C115.993 44.02 116.463 44.0413 116.932 44.084C117.444 44.084 117.956 44.1053 118.468 44.148C119.023 44.1907 119.3 44.3187 119.3 44.532C119.3 44.8733 118.66 45.044 117.38 45.044C116.825 45.044 116.249 45.0227 115.652 44.98C115.097 44.9373 114.543 44.916 113.988 44.916C111.599 44.916 109.316 45.1507 107.14 45.62C104.964 46.0893 103.001 46.6867 101.252 47.412C101.38 50.2707 101.785 52.66 102.468 54.58C103.151 56.4573 103.961 57.9933 104.9 59.188ZM98.5 60.34C99.9933 60.34 101.7 60.084 103.62 59.572C102.724 58.2067 101.935 56.564 101.252 54.644C100.612 52.6813 100.143 50.4627 99.844 47.988C97.796 49.012 96.132 50.1 94.852 51.252C93.8707 52.1053 93.1453 52.9587 92.676 53.812C92.2067 54.6653 91.972 55.4547 91.972 56.18C91.972 57.3747 92.548 58.356 93.7 59.124C94.852 59.9347 96.452 60.34 98.5 60.34ZM143.509 35.124C143.125 35.124 142.848 34.932 142.677 34.548C142.549 34.1213 142.485 33.8227 142.485 33.652C142.485 32.9693 142.677 32.3293 143.061 31.732C143.488 31.092 143.957 30.7507 144.469 30.708H144.661C145.173 30.708 145.514 30.836 145.685 31.092C145.898 31.3053 146.005 31.5827 146.005 31.924C146.005 32.564 145.728 33.268 145.173 34.036C144.618 34.7613 144.064 35.124 143.509 35.124ZM140.245 58.036C138.794 58.036 137.813 57.4813 137.301 56.372C136.789 55.2627 136.533 53.9827 136.533 52.532C136.533 51.0813 136.682 49.5667 136.981 47.988C137.322 46.3667 137.685 44.8947 138.069 43.572C138.496 42.2493 138.816 41.3107 139.029 40.756C139.498 39.7747 139.968 38.9427 140.437 38.26C140.906 37.5347 141.418 37.172 141.973 37.172C142.357 37.172 142.634 37.3213 142.805 37.62C143.018 37.876 143.125 38.2173 143.125 38.644C143.125 39.4973 142.89 40.372 142.421 41.268C141.952 42.1213 141.525 42.932 141.141 43.7C140.288 45.4493 139.605 47.0067 139.093 48.372C138.624 49.7373 138.389 51.444 138.389 53.492C138.389 54.8147 138.517 55.7747 138.773 56.372C139.072 56.9693 139.477 57.268 139.989 57.268C140.672 57.268 141.461 56.884 142.357 56.116C143.253 55.3053 144.17 54.2387 145.109 52.916C146.048 51.5933 146.88 50.164 147.605 48.628C148.074 47.6467 148.437 47.156 148.693 47.156C148.864 47.156 148.949 47.3267 148.949 47.668C148.949 48.1373 148.757 48.82 148.373 49.716C148.032 50.5693 147.605 51.444 147.093 52.34C146.624 53.236 146.176 53.94 145.749 54.452C145.024 55.3907 144.192 56.2227 143.253 56.948C142.314 57.6733 141.312 58.036 140.245 58.036ZM149.529 55.988C148.761 55.988 148.206 55.668 147.865 55.028C147.524 54.3453 147.353 53.556 147.353 52.66C147.353 51.508 147.545 50.164 147.929 48.628C148.356 47.092 148.91 45.5133 149.593 43.892C150.276 42.228 151.044 40.7133 151.897 39.348C152.793 37.94 153.732 36.8093 154.713 35.956C155.694 35.06 156.654 34.612 157.593 34.612C158.446 34.612 159.172 34.996 159.769 35.764C160.409 36.4893 160.729 37.3213 160.729 38.26C160.729 38.8147 160.644 39.284 160.473 39.668C160.302 40.0093 160.11 40.18 159.897 40.18C159.726 40.18 159.577 40.052 159.449 39.796C159.022 38.8147 158.553 38.1107 158.041 37.684C157.572 37.2573 157.081 37.044 156.569 37.044C155.716 37.044 154.862 37.5347 154.009 38.516C153.198 39.4547 152.537 40.5427 152.025 41.78C151.598 42.7187 151.193 43.8493 150.809 45.172C150.468 46.452 150.169 47.732 149.913 49.012C149.7 50.2493 149.593 51.2733 149.593 52.084C149.593 53.5347 149.934 54.26 150.617 54.26C151.47 54.26 152.558 53.3213 153.881 51.444C154.862 50.0787 155.737 48.5 156.505 46.708C157.316 44.916 157.998 43.3587 158.553 42.036C158.766 41.6093 159.001 41.332 159.257 41.204C159.513 41.076 159.748 41.012 159.961 41.012C160.473 41.012 160.793 41.2253 160.921 41.652C161.092 42.0787 161.177 42.4413 161.177 42.74C161.177 43.8493 161.07 44.852 160.857 45.748C160.644 46.6013 160.537 47.6467 160.537 48.884C160.537 49.78 160.601 50.612 160.729 51.38C160.9 52.1053 161.177 52.468 161.561 52.468C162.03 52.468 162.628 51.8707 163.353 50.676C163.524 50.3347 163.78 50.164 164.121 50.164C164.505 50.164 164.697 50.356 164.697 50.74C164.697 51.2947 164.313 51.892 163.545 52.532C162.777 53.1293 162.009 53.428 161.241 53.428C160.217 53.428 159.492 53.0013 159.065 52.148C158.34 50.74 157.977 49.4813 157.977 48.372C157.977 47.22 157.956 46.4307 157.913 46.004C157.7 46.516 157.294 47.3267 156.697 48.436C156.1 49.5027 155.396 50.6333 154.585 51.828C153.774 52.98 152.921 53.9613 152.025 54.772C151.129 55.5827 150.297 55.988 149.529 55.988ZM172.614 59.7C171.248 59.7 170.203 59.06 169.478 57.78C168.752 56.5427 168.39 55.1773 168.39 53.684C168.39 52.276 168.624 50.804 169.094 49.268C169.563 47.732 170.139 46.2173 170.822 44.724C171.547 43.2307 172.294 41.8653 173.062 40.628C172.294 40.9267 171.568 41.076 170.885 41.076C170.544 41.076 170.246 41.0333 169.99 40.948C169.734 40.8627 169.52 40.7987 169.35 40.756C169.136 41.268 168.752 42.1213 168.198 43.316C167.686 44.5107 167.131 45.7693 166.534 47.092C165.979 48.372 165.488 49.46 165.062 50.356C164.379 51.8067 163.782 52.532 163.27 52.532C163.014 52.532 162.886 52.3613 162.886 52.02C162.886 51.764 162.992 51.4227 163.206 50.996C164.187 49.1613 165.104 47.348 165.958 45.556C166.854 43.764 167.664 42.036 168.39 40.372C168.304 40.1587 168.219 39.8813 168.134 39.54C168.048 39.156 168.006 38.7507 168.006 38.324C168.006 37.8547 168.048 37.364 168.134 36.852C168.262 36.2973 168.432 35.764 168.646 35.252C168.774 34.9533 169.008 34.5267 169.35 33.972C169.691 33.3747 170.075 32.8413 170.502 32.372C170.928 31.86 171.334 31.604 171.718 31.604C172.443 31.604 172.806 31.988 172.806 32.756C172.806 33.4813 172.571 34.3133 172.102 35.252C171.675 36.1907 171.227 37.0653 170.758 37.876C170.288 38.644 170.054 39.22 170.054 39.604C170.054 39.9453 170.224 40.116 170.566 40.116C171.035 40.116 171.611 39.8813 172.294 39.412C173.019 38.9 173.595 38.4307 174.022 38.004C174.235 37.7907 174.576 37.4707 175.046 37.044C175.515 36.5747 175.963 36.34 176.39 36.34C176.816 36.34 177.094 36.468 177.222 36.724C177.392 36.98 177.478 37.2787 177.478 37.62C177.478 38.004 177.307 38.4947 176.966 39.092C176.624 39.6467 176.219 40.2013 175.75 40.756C175.323 41.3107 174.96 41.78 174.662 42.164C174.064 43.06 173.382 44.1907 172.614 45.556C171.846 46.9213 171.184 48.3933 170.63 49.972C170.075 51.508 169.798 52.98 169.798 54.388C169.798 55.3267 170.032 56.308 170.502 57.332C170.971 58.356 171.611 58.868 172.422 58.868C173.147 58.868 173.915 58.484 174.726 57.716C175.579 56.948 176.368 56.0307 177.094 54.964C177.862 53.8973 178.523 52.8733 179.078 51.892C179.675 50.9107 180.08 50.228 180.294 49.844C180.379 49.6307 180.528 49.3747 180.742 49.076C180.955 48.7347 181.211 48.564 181.51 48.564C181.766 48.564 181.894 48.692 181.894 48.948C181.894 49.1613 181.83 49.4173 181.702 49.716C181.616 49.972 181.531 50.2067 181.446 50.42C181.062 51.316 180.592 52.2547 180.038 53.236C179.483 54.2173 179.099 54.8787 178.885 55.22C178.288 56.2013 177.392 57.1827 176.198 58.164C175.046 59.188 173.851 59.7 172.614 59.7ZM181.115 81.652C179.451 81.652 178.107 81.204 177.083 80.308C176.059 79.4547 175.547 78.3027 175.547 76.852C175.547 75.572 175.91 74.292 176.635 73.012C177.318 71.7747 178.171 70.58 179.195 69.428C180.262 68.3187 181.328 67.3373 182.395 66.484C184.272 64.9907 186.491 63.5827 189.051 62.26C191.654 60.9373 194.576 59.9347 197.819 59.252C197.862 58.7827 197.883 58.292 197.883 57.78C197.883 57.3107 197.883 56.8413 197.883 56.372C197.883 52.916 197.648 49.78 197.179 46.964C196.71 44.1053 196.176 41.652 195.579 39.604C193.872 43.828 192.358 47.348 191.035 50.164C189.712 52.9373 188.987 55.2627 188.859 57.14C188.816 57.4387 188.624 57.7587 188.283 58.1C187.984 58.484 187.643 58.676 187.259 58.676C187.003 58.676 186.747 58.5267 186.491 58.228C186.278 57.972 186.128 57.5027 186.043 56.82C186.043 56.6493 186.022 56.4147 185.979 56.116C185.979 55.8173 185.979 55.284 185.979 54.516C185.979 53.748 185.979 52.596 185.979 51.06C185.979 49.6947 185.936 48.308 185.851 46.9C185.808 45.4493 185.659 44.1053 185.403 42.868C185.147 41.6307 184.763 40.628 184.251 39.86C183.782 39.092 183.12 38.708 182.267 38.708C181.584 38.708 180.944 38.964 180.347 39.476C179.792 39.988 179.323 40.5 178.939 41.012C178.555 41.4813 178.256 41.716 178.043 41.716C177.872 41.716 177.787 41.652 177.787 41.524C177.787 41.4387 177.851 41.3107 177.979 41.14C178.064 40.9267 178.15 40.756 178.235 40.628C178.619 40.0733 179.11 39.5187 179.707 38.964C180.347 38.4093 181.008 37.94 181.691 37.556C182.416 37.1293 183.056 36.916 183.611 36.916C184.763 36.916 185.659 37.5133 186.299 38.708C186.939 39.86 187.387 41.332 187.643 43.124C187.942 44.916 188.091 46.7507 188.091 48.628C188.091 49.4387 188.048 50.42 187.963 51.572C187.878 52.724 187.771 53.7053 187.643 54.516C188.496 52.9373 189.584 50.74 190.907 47.924C192.23 45.108 193.68 41.9293 195.259 38.388L194.683 36.724V36.532C194.683 36.1053 194.811 35.7853 195.067 35.572C195.366 35.3587 195.664 35.252 195.963 35.252C196.219 35.252 196.475 35.316 196.731 35.444C196.987 35.572 197.158 35.764 197.243 36.02C197.755 37.172 198.182 38.7507 198.523 40.756C198.907 42.7613 199.184 44.9373 199.355 47.284C199.568 49.588 199.675 51.8707 199.675 54.132C199.675 55.8387 199.611 57.4387 199.483 58.932C200.55 58.7187 201.68 58.548 202.875 58.42C204.112 58.292 205.179 58.228 206.075 58.228C206.63 58.228 206.907 58.3133 206.907 58.484C206.907 58.8253 206.459 59.0387 205.563 59.124C204.539 59.2093 203.494 59.316 202.427 59.444C201.403 59.6147 200.358 59.828 199.291 60.084C198.395 64.9907 196.987 68.916 195.067 71.86C193.19 74.8467 191.248 77.0867 189.243 78.58C187.792 79.6467 186.363 80.4147 184.955 80.884C183.59 81.396 182.31 81.652 181.115 81.652ZM180.603 80.308C181.328 80.308 182.16 80.1587 183.099 79.86C184.08 79.5613 185.104 79.092 186.171 78.452C189.584 76.4467 192.23 73.908 194.107 70.836C195.984 67.8067 197.179 64.3507 197.691 60.468C195.174 61.1507 192.635 62.132 190.075 63.412C187.558 64.7347 185.254 66.2707 183.163 68.02C182.224 68.8307 181.286 69.748 180.347 70.772C179.451 71.796 178.704 72.8413 178.107 73.908C177.51 75.0173 177.211 76.084 177.211 77.108C177.211 78.0893 177.51 78.8573 178.107 79.412C178.704 80.0093 179.536 80.308 180.603 80.308Z" fill="white"/>
</svg>
